<svg width="376" height="256" viewBox="0 0 376 256" fill="none" xmlns="http://www.w3.org/2000/svg">
<path fill-rule="evenodd" clip-rule="evenodd" d="M135.609 253.167C154.54 253.167 172.413 248.638 188.224 240.599C197.389 235.939 208.288 235.792 217.67 239.878C229.823 245.171 243.228 248.106 257.319 248.106C312.489 248.106 357.235 203.099 357.235 147.554C357.235 92.0095 312.489 47.0029 257.319 47.0029C250.05 47.0029 242.964 47.7838 236.139 49.266C226.161 51.4331 215.519 49.1847 207.448 42.8439C187.63 27.2747 162.698 18 135.609 18C71.0911 18 18.7676 70.6321 18.7676 135.583C18.7676 200.534 71.0911 253.167 135.609 253.167ZM189.131 242.382C197.742 238.004 208.014 237.854 216.871 241.712C229.271 247.112 242.948 250.106 257.319 250.106C313.606 250.106 359.235 204.192 359.235 147.554C359.235 90.9167 313.606 45.0029 257.319 45.0029C249.906 45.0029 242.678 45.7992 235.715 47.3116C226.293 49.3579 216.265 47.2274 208.683 41.2712C188.527 25.4357 163.163 16 135.609 16C69.9748 16 16.7676 69.5393 16.7676 135.583C16.7676 201.627 69.9748 255.167 135.609 255.167C154.862 255.167 173.046 250.56 189.131 242.382Z" fill="#F1F3F5"/>
<ellipse cx="186.812" cy="193.36" rx="113.466" ry="5.87924" fill="#E9ECEF"/>
<path d="M238.473 102.547H275.317V192.728H238.473V102.547Z" fill="#E9ECEF"/>
<path fill-rule="evenodd" clip-rule="evenodd" d="M237.723 101.797H276.067V193.478H237.723V101.797ZM239.223 103.297V191.978H274.567V103.297H239.223Z" fill="#CED4DA"/>
<path d="M98.0635 102.547H238.471V192.728H98.0635V102.547Z" fill="#F8F9FA"/>
<path fill-rule="evenodd" clip-rule="evenodd" d="M97.3135 101.797H239.221V193.478H97.3135V101.797ZM98.8135 103.297V191.978H237.721V103.297H98.8135Z" fill="#CED4DA"/>
<path d="M133.29 150.914H203.244V177.325H133.29V150.914Z" fill="#F1F3F5"/>
<path fill-rule="evenodd" clip-rule="evenodd" d="M202.244 151.914H134.29V176.325H202.244V151.914ZM133.29 150.914V177.325H203.244V150.914H133.29Z" fill="#CED4DA"/>
<rect x="141.256" y="159.383" width="55.5128" height="3.73146" fill="#CED4DA"/>
<rect x="141.256" y="165.121" width="41.3794" height="3.73146" fill="#CED4DA"/>
<path d="M98.0636 102.547H238.471L222.538 136.615H82.1309L98.0636 102.547Z" fill="white"/>
<path fill-rule="evenodd" clip-rule="evenodd" d="M97.5854 101.797H239.649L223.014 137.365H80.9512L97.5854 101.797ZM98.5398 103.297L83.3086 135.865H222.06L237.291 103.297H98.5398Z" fill="#CED4DA"/>
<path d="M237.477 102.547H275.317L313.378 85.5127H275.538L237.477 102.547Z" fill="#E9ECEF"/>
<path fill-rule="evenodd" clip-rule="evenodd" d="M237.17 101.862L237.476 103.297H275.477L313.684 86.1973L313.378 84.7627H275.378L237.17 101.862ZM240.988 101.797L275.698 86.2627H309.866L275.156 101.797H240.988Z" fill="#CED4DA"/>
<path d="M136.125 102.547H98.2847L68.1896 85.5127H106.03L136.125 102.547Z" fill="#DEE2E6"/>
<path fill-rule="evenodd" clip-rule="evenodd" d="M138.973 103.297H98.0872L65.3419 84.7627H106.227L138.973 103.297ZM133.277 101.797L105.832 86.2627H71.0372L98.4823 101.797H133.277Z" fill="#CED4DA"/>
<path opacity="0.5" d="M97.3496 137.393V142.628H223.025L242.401 103.223H239.245L237.764 105.871L223.025 137.393H97.3496Z" fill="#ADB5BD"/>
</svg>
