<svg width="533" height="255" viewBox="0 0 533 255" fill="none" xmlns="http://www.w3.org/2000/svg">
<mask id="mask0" mask-type="alpha" maskUnits="userSpaceOnUse" x="64" y="16" width="415" height="216">
<path fill-rule="evenodd" clip-rule="evenodd" d="M393.512 46.1273C385.318 46.1273 378.675 39.4845 378.675 31.2902C378.675 23.0959 385.318 16.4531 393.512 16.4531C401.707 16.4531 408.349 23.0959 408.349 31.2902C408.349 39.4845 401.707 46.1273 393.512 46.1273ZM364.061 202.494C359.489 199.556 353.36 199.98 349.394 203.695C330.813 221.105 305.83 231.766 278.357 231.766C251.821 231.766 227.608 221.82 209.243 205.452C201.255 198.333 166.897 199.248 156.465 201.622C154.016 202.18 151.467 202.474 148.85 202.474C140.231 202.474 132.358 199.284 126.347 194.019C122.017 190.227 115.546 188.824 110.046 190.519C106.765 191.53 103.279 192.075 99.666 192.075C80.2287 192.075 64.4717 176.318 64.4717 156.88C64.4717 145.219 70.1435 134.882 78.879 128.478C83.4591 125.12 86.2369 119.249 85.044 113.697C84.1115 109.356 83.6206 104.852 83.6206 100.232C83.6206 64.9977 112.184 36.4343 147.419 36.4343C163.626 36.4343 178.421 42.4777 189.675 52.4339C194.501 56.7032 202.169 56.8861 206.843 52.4513C225.473 34.7747 250.649 23.93 278.357 23.93C312.852 23.93 343.422 40.7371 362.323 66.609C365.528 70.9956 371.468 72.5537 376.509 70.5272C385.098 67.0738 394.479 65.1734 404.304 65.1734C445.477 65.1734 478.855 98.5514 478.855 139.725C478.855 180.899 445.477 214.277 404.304 214.277C389.481 214.277 375.669 209.951 364.061 202.494Z" fill="#1068EB"/>
</mask>
<g mask="url(#mask0)">
<path d="M1.2041 64.6133H119.672V132.693H1.2041V64.6133Z" fill="#F8F9FA"/>
<path fill-rule="evenodd" clip-rule="evenodd" d="M118.672 65.6133H2.2041V131.693H118.672V65.6133ZM1.2041 64.6133V132.693H119.672V64.6133H1.2041Z" fill="#CED4DA"/>
<path d="M173.103 50.1602H368.672V58.0705V160.193H173.103V58.0705V50.1602Z" fill="#F1F3F5"/>
<path fill-rule="evenodd" clip-rule="evenodd" d="M174.103 57.5705H367.672V51.1602H174.103V57.5705ZM173.103 50.1602H368.672V160.193H173.103V50.1602ZM174.103 159.193V58.5705H367.672V159.193H174.103Z" fill="#CED4DA"/>
<path d="M106.41 172.434H150.08V183.633V247.491H106.41V183.633V172.434Z" fill="#F8F9FA"/>
<path fill-rule="evenodd" clip-rule="evenodd" d="M149.08 173.434H107.41V246.491H149.08V173.434ZM106.41 172.434V247.491H150.08V172.434H106.41Z" fill="#CED4DA"/>
<path d="M405.932 46.4609H449.602V54.9637V103.446H405.932V54.9637V46.4609Z" fill="#F8F9FA"/>
<path fill-rule="evenodd" clip-rule="evenodd" d="M448.602 47.4609H406.932V102.446H448.602V47.4609ZM405.932 46.4609V103.446H449.602V46.4609H405.932Z" fill="#CED4DA"/>
<g opacity="0.7">
<path fill-rule="evenodd" clip-rule="evenodd" d="M457.394 135.445H398.139V194.701H457.394V135.445ZM397.139 134.445V195.701H458.394V134.445H397.139Z" fill="#ADB5BD"/>
<path d="M457.386 194.682V150.82C436.986 157.383 416.686 171.318 398.127 169.575V194.682H457.386Z" fill="#F1F3F5"/>
<path fill-rule="evenodd" clip-rule="evenodd" d="M460.911 149.707C471.993 146.679 483.17 146.202 494.143 151.997C494.387 152.126 494.48 152.428 494.351 152.672C494.222 152.917 493.92 153.01 493.676 152.881C483.007 147.247 472.115 147.682 461.175 150.672C453.179 152.857 445.208 156.389 437.3 159.894C434.36 161.197 431.428 162.496 428.507 163.721C417.773 168.221 407.193 171.708 397.072 170.444C386.905 169.174 377.303 163.128 368.492 148.81C368.347 148.575 368.421 148.267 368.656 148.122C368.891 147.978 369.199 148.051 369.344 148.286C378.041 162.42 387.407 168.229 397.196 169.451C407.03 170.68 417.393 167.296 428.12 162.799C430.998 161.592 433.904 160.304 436.83 159.008C444.761 155.493 452.836 151.914 460.911 149.707Z" fill="url(#paint0_linear)"/>
<circle cx="412.262" cy="147.443" r="4.26349" fill="#ADB5BD"/>
</g>
</g>
<mask id="mask1" mask-type="alpha" maskUnits="userSpaceOnUse" x="231" y="71" width="96" height="90">
<rect x="231.365" y="71.8477" width="95.1023" height="88.3412" fill="#C4C4C4"/>
</mask>
<g mask="url(#mask1)">
<path fill-rule="evenodd" clip-rule="evenodd" d="M276.586 142.668C280.232 143.075 283.807 142.888 287.215 142.186L289.011 149.536L286.932 150.044L287.666 153.061C283.851 155.088 280.19 156.936 279.696 157.119C279.44 157.215 278.68 158.037 277.664 159.302C274.617 163.096 269.27 170.867 268.316 174.901C267.299 179.205 263.452 181.928 261.655 182.752L210.781 203.266C222.936 212.725 229.093 217.413 242.014 223.038C252.862 216.485 272.859 205.189 274.985 206.163C285.836 206.532 292.421 204.666 299.501 201.693L300.143 204.333L306.697 202.744L305.765 198.917C307.21 198.262 308.719 197.58 310.324 196.877C313.744 195.998 318.183 193.991 319.399 192.771C319.717 191.324 320.14 188.268 319.288 187.623C318.437 186.978 316.228 186.248 315.229 185.963C318.363 184.466 320.432 183.339 320.862 182.659C321.762 181.182 320.511 178.024 319.577 177.151C318.952 176.568 317.266 176.248 315.757 176.09C318.894 174.416 320.507 172.741 320.948 172.045C321.847 170.567 320.289 166.58 319.354 165.708C318.586 164.99 315.903 164.639 314.119 164.519L318.77 160.91C318.913 156.565 316.893 153.944 315.887 153.206C315.617 153.136 315.308 153.046 314.959 152.945C313.087 152.402 310.044 151.52 305.578 151.401C303.213 150.503 300.488 149.364 298.312 148.416C298.196 148.366 298.077 148.324 297.956 148.291C297.109 148.06 296.155 148.246 295.408 148.716C295.35 148.752 295.292 148.789 295.231 148.826C294.811 149.088 294.323 149.379 293.786 149.691L293.482 148.443L291.273 148.983L289.478 141.638C302.443 138.021 312.555 126.843 314.136 112.645C316.215 93.9849 302.773 77.1732 284.113 75.0948C265.453 73.0164 248.641 86.4584 246.562 105.118C244.484 123.778 257.926 140.59 276.586 142.668ZM277.356 135.758C292.199 137.411 305.572 126.718 307.226 111.875C308.879 97.0319 298.186 83.6587 283.343 82.0054C268.5 80.3521 255.126 91.0447 253.473 105.888C251.82 120.731 262.512 134.105 277.356 135.758Z" fill="#CED4DA"/>
</g>
<path d="M207.429 203.737L257.497 183.266C259.293 182.443 263.141 179.719 264.158 175.416C265.429 170.037 273.978 158.047 275.005 157.666C275.882 157.339 287.16 151.731 291.242 149.219C292.101 148.69 293.228 148.528 294.154 148.931C296.33 149.879 299.055 151.018 301.42 151.915C306.721 152.057 310.017 153.273 311.728 153.721C312.735 154.459 314.755 157.08 314.612 161.424L309.961 165.034C311.744 165.154 314.428 165.505 315.196 166.222C316.131 167.095 317.689 171.082 316.79 172.56C316.348 173.256 314.735 174.931 311.599 176.605C313.108 176.762 314.794 177.082 315.419 177.666C316.353 178.538 317.603 181.696 316.704 183.174C316.274 183.853 314.205 184.98 311.071 186.478C312.069 186.762 314.278 187.493 315.13 188.138C315.982 188.782 315.559 191.839 315.241 193.286C314.024 194.506 309.586 196.513 306.165 197.392C293.516 202.929 286.785 207.22 270.827 206.678C268.701 205.704 249.428 216.853 238.579 223.406" stroke="#6A7178" stroke-width="2"/>
<path d="M257.496 183.266L207.428 203.737C209.577 204.686 214.278 209.528 224.433 216.109C229.087 218.836 232.835 220.846 238.578 223.406C249.427 216.853 268.7 205.704 270.826 206.678C286.784 207.22 293.515 202.929 306.164 197.392C309.585 196.513 314.023 194.506 315.24 193.286C315.558 191.839 315.981 188.782 315.129 188.138C314.277 187.493 312.068 186.762 311.07 186.478C314.204 184.98 316.273 183.853 316.703 183.174C317.603 181.696 316.352 178.538 315.418 177.666C314.793 177.082 313.107 176.762 311.598 176.605C314.734 174.931 316.348 173.256 316.789 172.56C317.688 171.082 316.13 167.095 315.195 166.222C314.427 165.505 311.743 165.154 309.96 165.034L314.611 161.424C314.754 157.08 312.734 154.459 311.727 153.721C310.016 153.273 306.72 152.057 301.419 151.915C299.054 151.018 296.329 149.879 294.153 148.931C293.227 148.528 292.1 148.69 291.241 149.219C287.159 151.731 275.881 157.339 275.004 157.666C273.977 158.047 265.428 170.037 264.157 175.416C263.14 179.719 259.292 182.443 257.496 183.266Z" fill="white"/>
<path d="M272.336 206.977C267.463 205.122 266.516 197.512 265.73 194.612C267.396 203.44 268.9 206.488 270.54 206.977C271.204 206.993 271.702 206.979 272.336 206.977Z" fill="#6A7178"/>
<path d="M289.324 148.959L282.773 150.561L283.249 152.515L289.374 149.164L289.324 148.959Z" fill="#4F575E"/>
<path d="M295.985 204.849L302.539 203.261L291.415 157.551L285.113 160.176L295.985 204.849Z" fill="#4F575E"/>
<path d="M302.525 203.214L295.972 204.801L296.018 204.99C296.496 206.744 298.286 207.809 300.064 207.379C301.875 206.94 302.987 205.117 302.548 203.307C302.542 203.281 302.532 203.24 302.525 203.214Z" fill="#ADB5BD"/>
<path d="M283.938 136.51L281.677 137.062L284.855 150.063L287.115 149.505L283.938 136.51Z" fill="#ADB5BD"/>
<circle cx="276.19" cy="109.397" r="27.0352" transform="rotate(6.3556 276.19 109.397)" fill="white"/>
<path fill-rule="evenodd" clip-rule="evenodd" d="M274.218 136.361C286.941 135.416 297.591 125.53 299.054 112.39C300.707 97.5505 290.017 84.181 275.178 82.5281C274.837 82.4901 274.496 82.4586 274.157 82.4336C275.802 82.3114 277.483 82.3388 279.182 82.5281C294.021 84.181 304.711 97.5505 303.058 112.39C301.443 126.888 288.645 137.425 274.218 136.361Z" fill="#F1F3F5"/>
<path fill-rule="evenodd" clip-rule="evenodd" d="M273.202 136.228C288.02 137.878 301.37 127.204 303.02 112.386C304.671 97.5685 293.997 84.2184 279.179 82.5679C264.361 80.9175 251.011 91.5917 249.361 106.409C247.71 121.227 258.384 134.577 273.202 136.228ZM272.427 143.185C291.087 145.263 307.899 131.821 309.977 113.161C312.056 94.5011 298.614 77.6894 279.954 75.6109C261.294 73.5325 244.482 86.9745 242.404 105.635C240.325 124.294 253.767 141.106 272.427 143.185Z" fill="#6A7178"/>
<path d="M273.977 114.346V113.761C273.977 113.161 274.014 112.619 274.088 112.134C274.172 111.65 274.314 111.197 274.514 110.775C274.725 110.354 275.004 109.943 275.351 109.543C275.699 109.132 276.136 108.706 276.663 108.263C277.168 107.832 277.6 107.442 277.958 107.094C278.316 106.736 278.606 106.378 278.827 106.02C279.059 105.651 279.227 105.262 279.333 104.851C279.449 104.43 279.507 103.94 279.507 103.382C279.507 102.876 279.428 102.418 279.27 102.007C279.112 101.586 278.88 101.228 278.574 100.933C278.279 100.627 277.906 100.396 277.453 100.238C277.01 100.069 276.494 99.9848 275.904 99.9848C275.03 99.9848 274.198 100.122 273.408 100.396C272.618 100.669 271.855 100.985 271.117 101.344L270.122 99.0527C270.975 98.6103 271.897 98.2364 272.887 97.931C273.877 97.615 274.883 97.457 275.904 97.457C276.884 97.457 277.763 97.594 278.543 97.8678C279.333 98.1311 280.002 98.5155 280.549 99.0211C281.097 99.5267 281.518 100.148 281.813 100.885C282.108 101.612 282.256 102.434 282.256 103.35C282.256 104.056 282.182 104.688 282.034 105.246C281.897 105.793 281.687 106.304 281.402 106.778C281.118 107.252 280.765 107.71 280.344 108.153C279.923 108.595 279.428 109.064 278.859 109.559C278.311 110.033 277.863 110.449 277.516 110.807C277.168 111.155 276.894 111.497 276.694 111.834C276.494 112.16 276.357 112.497 276.284 112.845C276.21 113.193 276.173 113.598 276.173 114.062V114.346H273.977ZM273.219 119.133C273.219 118.733 273.271 118.396 273.377 118.122C273.482 117.837 273.624 117.611 273.803 117.442C273.982 117.263 274.193 117.137 274.435 117.063C274.677 116.979 274.941 116.937 275.225 116.937C275.499 116.937 275.757 116.979 275.999 117.063C276.252 117.137 276.468 117.263 276.647 117.442C276.826 117.611 276.968 117.837 277.074 118.122C277.179 118.396 277.232 118.733 277.232 119.133C277.232 119.523 277.179 119.86 277.074 120.144C276.968 120.418 276.826 120.644 276.647 120.823C276.468 121.002 276.252 121.134 275.999 121.218C275.757 121.303 275.499 121.345 275.225 121.345C274.941 121.345 274.677 121.303 274.435 121.218C274.193 121.134 273.982 121.002 273.803 120.823C273.624 120.644 273.482 120.418 273.377 120.144C273.271 119.86 273.219 119.523 273.219 119.133Z" fill="#ADB5BD"/>
<path d="M300.57 197.828L304.14 197.608L290.205 149.868C285.639 152.576 276.346 157.335 275.537 157.635L290.205 156.91L293.262 162.031L289.658 163.769L288.5 167.051L290.205 171.492L286.269 172.155L286.269 182.673L292.387 196.949C293.683 198.289 296.57 198.295 297.852 198.13L300.57 197.828Z" fill="white"/>
<path d="M275.422 157.6C274.395 157.981 266.018 169.971 264.747 175.35L286.129 165.266L291.337 160.449L292.513 160.594L302.129 152.304C299.764 151.406 296.046 150.075 293.87 149.127C292.945 148.724 291.82 148.889 290.966 149.427C286.978 151.939 276.298 157.274 275.422 157.6Z" fill="white"/>
<path opacity="0.6" d="M301.607 157.629C302.603 155.936 303.734 154.116 304.771 154.137C307.756 155.241 309.1 154.454 310.055 155.45C309.407 156.745 307.735 158.765 306.283 159.118C303.593 159.118 302.126 158.833 301.607 157.629Z" fill="#DEE2E6"/>
<path d="M301.607 157.629C302.603 155.936 303.734 154.116 304.771 154.137C305.001 154.222 305.221 154.296 305.432 154.36C304.506 155.231 302.587 157.274 302.325 158.474C301.998 158.262 301.761 157.986 301.607 157.629Z" fill="#CED4DA"/>
<path opacity="0.6" d="M297.675 170.006C299.915 167.697 298.46 165.044 297.351 164.544C295.993 163.933 292.825 164.29 291.411 164.544C289.178 165.07 289.846 168.858 290.84 170.439L297.675 170.006Z" fill="#DEE2E6"/>
<path d="M297.674 170.008C299.915 167.699 298.46 165.045 297.351 164.546C297.014 164.395 296.566 164.303 296.062 164.254C296.846 165.146 298.097 167.557 296.829 170.061L297.674 170.008Z" fill="#CED4DA"/>
<path opacity="0.6" d="M292.831 179.016C294.588 176.521 292.758 174.126 291.623 173.241C290.31 172.806 287.892 173.381 286.634 173.791C283.596 174.675 286.645 180.459 287.764 180.506C288.302 180.528 290.687 180.375 292.831 179.016Z" fill="#DEE2E6"/>
<path d="M292.831 179.013C294.588 176.517 292.758 174.123 291.623 173.237C291.178 173.09 290.606 173.059 289.995 173.098C291.696 175.221 292.306 176.549 292.057 179.45C292.316 179.32 292.575 179.175 292.831 179.013Z" fill="#CED4DA"/>
<path opacity="0.6" d="M292.301 189.115C294.542 186.806 292.895 184.136 291.792 183.089C290.434 182.478 288.474 183.479 287.06 183.733C284.174 184.412 286.182 190.08 287.399 190.08C287.986 190.08 289.8 190.218 292.301 189.115Z" fill="#DEE2E6"/>
<path d="M292.301 189.115C294.542 186.806 292.895 184.136 291.792 183.089C291.366 182.898 290.882 182.864 290.374 182.917C292.05 184.892 292.486 186.236 291.792 189.327C291.958 189.262 292.128 189.191 292.301 189.115Z" fill="#CED4DA"/>
<path opacity="0.6" d="M297.876 196.811C299.751 194.879 298.586 192.279 297.449 191.767C296.313 191.256 294.665 191.352 293.093 192.071C290.823 193.643 292.943 196.517 293.48 196.517C293.972 196.517 295.782 197.735 297.876 196.811Z" fill="#DEE2E6"/>
<path d="M297.876 196.813C299.752 194.88 298.587 192.28 297.45 191.769C297.108 191.615 296.721 191.516 296.303 191.473C297.067 192.312 298.367 194.586 297.45 196.974C297.59 196.929 297.733 196.876 297.876 196.813Z" fill="#CED4DA"/>
<path fill-rule="evenodd" clip-rule="evenodd" d="M310.221 153.808C310.853 153.872 311.492 154.223 311.928 154.695C312.361 155.165 312.654 155.83 312.423 156.511C311.354 159.659 308.732 161.158 305.731 161.783C302.772 162.398 299.383 162.182 296.574 161.838L295.455 162.308L295.384 162.309C292.486 162.349 290.87 163.296 289.999 164.395C289.118 165.508 288.954 166.836 289.073 167.709L289.074 167.712C289.148 168.291 289.368 169.169 289.783 169.879C290.195 170.583 290.748 171.045 291.487 171.018C291.724 170.977 293.248 170.898 294.682 170.824C295.922 170.761 297.096 170.7 297.314 170.67C299.228 169.834 299.786 169.644 300.795 169.301C301.049 169.214 301.333 169.118 301.674 168.998C302.249 168.707 302.964 168.365 303.723 168.012C304.963 167.436 306.331 166.823 307.418 166.336L307.444 166.325C307.664 166.226 307.872 166.133 308.064 166.047L309.955 165.039C309.084 166.064 307.863 166.634 306.597 167.226C306.26 167.384 305.92 167.543 305.582 167.712C305.998 167.626 309.699 167.491 310.4 167.926C308.438 167.436 305.698 168.399 302.872 169.391C300.931 170.073 298.95 170.769 297.153 171.018C296.998 171.04 296.374 171.119 295.597 171.218L295.595 171.218C294.047 171.415 291.887 171.689 291.595 171.74L291.584 171.742C290.176 171.989 288.945 172.282 288.148 172.507C286.576 172.951 285.603 173.582 285.034 174.273C284.47 174.958 284.277 175.732 284.325 176.52C284.421 178.108 285.495 179.734 286.454 180.594C287.143 180.936 288.159 181.145 289.39 181.243C290.637 181.343 292.07 181.325 293.536 181.236C296.453 181.058 299.473 180.597 301.372 180.224C301.639 180.124 302.232 179.942 302.998 179.707L302.999 179.706C304.97 179.1 308.091 178.14 309.798 177.323C308.852 178.08 302.905 180.224 301.571 180.594C301.137 180.68 300.643 180.788 300.103 180.905C298.256 181.307 295.88 181.824 293.58 181.964C292.478 182.032 291.385 182.059 290.366 182.027C290.324 182.052 290.277 182.069 290.225 182.075C289.196 182.205 288.329 182.365 287.741 182.531C286.538 182.87 285.764 183.429 285.291 184.076C284.817 184.726 284.622 185.495 284.633 186.295C284.654 187.896 285.497 189.548 286.423 190.384C287.1 190.719 288.077 190.878 289.261 190.899C290.387 190.918 291.665 190.812 292.982 190.637C292.988 190.636 292.993 190.635 292.999 190.635C293.078 190.624 293.157 190.614 293.236 190.603C295.337 190.311 297.488 189.861 299.245 189.494L299.287 189.486C302.976 188.714 306.738 187.928 310.288 186.659C306.574 188.498 303.165 189.209 299.643 189.944L299.245 190.027C298.62 190.158 297.961 190.323 297.277 190.494C296.035 190.804 294.709 191.135 293.337 191.326C293.274 191.334 293.212 191.343 293.149 191.351C292.493 191.693 292.081 192.096 291.826 192.511C291.564 192.938 291.455 193.401 291.44 193.865C291.411 194.767 291.736 195.637 291.944 196.196L291.973 196.272C291.993 196.327 292.055 196.419 292.199 196.539C292.339 196.656 292.531 196.779 292.768 196.903C293.243 197.151 293.863 197.384 294.518 197.573C295.172 197.763 295.847 197.905 296.428 197.975C297.028 198.048 297.469 198.036 297.691 197.964C297.976 197.87 298.439 197.803 298.966 197.75C299.505 197.696 300.145 197.655 300.809 197.624C302.126 197.563 303.545 197.541 304.46 197.539L306.13 197.438C304.833 197.638 303.499 197.753 302.164 197.869C300.807 197.987 299.448 198.104 298.126 198.31C297.019 198.483 295.386 198.429 294.436 198.154C294.224 198.092 294.001 198.037 293.779 197.983C293.286 197.862 292.797 197.741 292.43 197.55C292.165 197.411 291.924 197.261 291.731 197.099C291.543 196.942 291.372 196.752 291.288 196.526L291.254 196.435C291.048 195.884 290.677 194.893 290.71 193.842C290.728 193.277 290.862 192.685 291.204 192.129C291.334 191.917 291.492 191.713 291.682 191.52C290.833 191.6 290.011 191.642 289.248 191.629C288.005 191.607 286.878 191.439 286.049 191.013L286.009 190.993L285.975 190.963C284.883 190.002 283.927 188.135 283.903 186.305C283.89 185.38 284.116 184.447 284.702 183.646C285.288 182.843 286.213 182.204 287.543 181.828C287.617 181.808 287.693 181.787 287.774 181.767C287.126 181.641 286.549 181.464 286.081 181.224L286.04 181.203L286.006 181.173C285.191 180.456 284.274 179.221 283.84 177.845C283.166 181.194 281.644 184.607 278.63 186.999L278.595 187.027L278.554 187.045C276.88 187.805 274.112 188.778 271.226 189.232C268.356 189.684 265.409 189.561 263.198 188.187C262.936 188.024 262.717 187.823 262.902 187.938C264.881 189.168 268.286 188.955 271.112 188.511C273.899 188.072 276.582 187.134 278.211 186.399C281.197 184.013 282.646 180.532 283.235 177.11C283.826 173.674 283.54 170.336 283.098 168.325L283.053 168.121L291.323 160.453L296.567 161.102C299.379 161.45 302.713 161.665 305.582 161.068C308.443 160.472 310.974 159.202 311.928 156.391C312.114 155.841 311.438 154.274 310.514 154.274C309.913 154.213 303.185 152.988 301.381 151.93C302.473 152.469 308.015 153.466 310.221 153.808ZM284.452 173.69C284.384 173.772 284.321 173.855 284.262 173.939C284.347 171.712 284.133 169.697 283.836 168.254L288.752 163.696L291.552 161.1L294.675 161.486C292.016 161.659 290.367 162.612 289.408 163.823C289.194 164.093 289.016 164.374 288.87 164.659C288.316 165.739 288.22 166.872 288.331 167.687C288.414 168.33 288.655 169.309 289.135 170.129C289.366 170.523 289.664 170.898 290.039 171.175C289.197 171.353 288.47 171.534 287.931 171.686C286.267 172.155 285.144 172.849 284.452 173.69Z" fill="#6A7178"/>
<path opacity="0.35" d="M284.446 173.688C284.379 173.77 284.315 173.853 284.257 173.937L283.83 168.252L288.746 163.694L291.546 161.098L294.669 161.484C292.01 161.656 290.361 162.61 289.402 163.821C289.188 164.091 289.01 164.372 288.864 164.657C288.31 165.737 288.214 166.87 288.325 167.685C288.408 168.328 288.649 169.307 289.129 170.126C289.36 170.521 289.658 170.896 290.033 171.173C289.191 171.35 288.464 171.532 287.925 171.684L284.446 173.688Z" fill="#ADB5BD"/>
<path opacity="0.35" d="M305.204 197.566C304.202 197.691 303.183 197.78 302.163 197.868C300.806 197.986 299.448 198.103 298.126 198.309C297.018 198.482 295.385 198.428 294.435 198.153C294.223 198.091 294 198.037 293.779 197.982C293.286 197.861 292.796 197.74 292.43 197.549C292.164 197.41 291.924 197.26 291.731 197.099C291.542 196.941 291.371 196.751 291.288 196.526L291.253 196.434C291.047 195.883 290.676 194.892 290.71 193.841C290.728 193.276 290.862 192.685 291.203 192.128C291.333 191.916 291.492 191.713 291.681 191.52C290.833 191.599 290.011 191.641 289.248 191.628C288.005 191.607 286.877 191.438 286.048 191.013L286.008 190.992L285.974 190.962C284.883 190.002 283.926 188.135 283.902 186.304C283.89 185.379 284.115 184.446 284.701 183.645C285.287 182.842 286.212 182.203 287.543 181.827C287.616 181.807 287.693 181.786 287.773 181.766C287.125 181.64 286.549 181.463 286.08 181.223L286.04 181.202L286.006 181.172C285.191 180.455 284.273 179.22 283.84 177.844C283.165 181.193 281.644 184.607 278.629 186.998L278.594 187.026L278.553 187.044C276.879 187.805 274.111 188.777 271.225 189.231C268.355 189.683 265.408 189.56 263.197 188.186L266.001 190.183C269.77 192.179 277.942 188.69 279.784 187.748C283.505 185.844 282.353 182.895 282.731 187.044C282.848 188.324 283.725 191.281 284.966 192.26C285.958 193.043 288.333 192.91 289.629 192.794C289.276 193.209 289.228 194.021 289.248 194.375L289.785 197.06C291.994 199.356 295.712 198.904 297.723 198.667C300.853 198.181 302.614 197.926 305.204 197.566Z" fill="#ADB5BD"/>
<path fill-rule="evenodd" clip-rule="evenodd" d="M380.675 31.2902C380.675 38.3799 386.423 44.1273 393.513 44.1273C400.602 44.1273 406.35 38.3799 406.35 31.2902C406.35 24.2005 400.602 18.4531 393.513 18.4531C386.423 18.4531 380.675 24.2005 380.675 31.2902ZM278.357 229.766C305.302 229.766 329.801 219.312 348.027 202.236C352.693 197.864 359.836 197.402 365.142 200.811C376.438 208.068 389.876 212.277 404.304 212.277C444.373 212.277 476.856 179.794 476.856 139.725C476.856 99.6559 444.373 67.1734 404.304 67.1734C394.739 67.1734 385.611 69.0232 377.255 72.3828C371.407 74.734 364.479 72.9498 360.708 67.7889C342.167 42.4102 312.187 25.93 278.357 25.93C251.181 25.93 226.493 36.5641 208.219 53.9021C202.727 59.1132 193.882 58.8263 188.35 53.9318C177.448 44.2866 163.119 38.4343 147.419 38.4343C113.289 38.4343 85.6206 66.1023 85.6206 100.232C85.6206 104.71 86.0964 109.074 86.9995 113.277C88.3872 119.736 85.1572 126.355 80.0616 130.091C71.8178 136.134 66.4718 145.883 66.4718 156.88C66.4718 175.213 81.3334 190.075 99.6661 190.075C103.077 190.075 106.364 189.561 109.457 188.608C115.626 186.706 122.817 188.269 127.665 192.515C133.325 197.472 140.734 200.474 148.85 200.474C151.317 200.474 153.717 200.197 156.021 199.672C161.476 198.431 172.868 197.611 183.837 197.978C189.343 198.162 194.827 198.647 199.476 199.553C204.02 200.438 208.141 201.791 210.573 203.959C228.587 220.013 252.331 229.766 278.357 229.766ZM25.293 101.903C25.293 112.17 33.6158 120.492 43.8824 120.492C54.1491 120.492 62.4719 112.17 62.4719 101.903C62.4719 91.6363 54.1491 83.3135 43.8824 83.3135C33.6158 83.3135 25.293 91.6363 25.293 101.903ZM487.211 164.178C487.211 169.562 491.575 173.926 496.959 173.926C502.342 173.926 506.707 169.562 506.707 164.178C506.707 158.794 502.342 154.43 496.959 154.43C491.575 154.43 487.211 158.794 487.211 164.178ZM378.675 31.2902C378.675 39.4845 385.318 46.1273 393.513 46.1273C401.707 46.1273 408.35 39.4845 408.35 31.2902C408.35 23.0959 401.707 16.4531 393.513 16.4531C385.318 16.4531 378.675 23.0959 378.675 31.2902ZM349.394 203.695C353.36 199.98 359.489 199.556 364.061 202.494C375.669 209.951 389.481 214.277 404.304 214.277C445.478 214.277 478.856 180.899 478.856 139.725C478.856 98.5514 445.478 65.1734 404.304 65.1734C394.479 65.1734 385.098 67.0738 376.509 70.5272C371.468 72.5537 365.528 70.9956 362.323 66.609C343.422 40.7371 312.852 23.93 278.357 23.93C250.649 23.93 225.473 34.7747 206.843 52.4513C202.169 56.8861 194.501 56.7032 189.675 52.4339C178.421 42.4777 163.626 36.4343 147.419 36.4343C112.184 36.4343 83.6206 64.9977 83.6206 100.232C83.6206 104.852 84.1116 109.356 85.0441 113.697C86.237 119.249 83.4592 125.12 78.8791 128.478C70.1436 134.882 64.4718 145.219 64.4718 156.88C64.4718 176.318 80.2288 192.075 99.6661 192.075C103.279 192.075 106.765 191.53 110.046 190.519C115.546 188.824 122.017 190.227 126.347 194.019C132.358 199.284 140.231 202.474 148.85 202.474C151.467 202.474 154.016 202.18 156.465 201.622C166.897 199.248 201.255 198.333 209.243 205.452C227.608 221.82 251.821 231.766 278.357 231.766C305.83 231.766 330.813 221.105 349.394 203.695ZM23.293 101.903C23.293 113.274 32.5112 122.492 43.8824 122.492C55.2537 122.492 64.4719 113.274 64.4719 101.903C64.4719 90.5317 55.2537 81.3135 43.8824 81.3135C32.5112 81.3135 23.293 90.5317 23.293 101.903ZM485.211 164.178C485.211 170.666 490.471 175.926 496.959 175.926C503.447 175.926 508.707 170.666 508.707 164.178C508.707 157.69 503.447 152.43 496.959 152.43C490.471 152.43 485.211 157.69 485.211 164.178Z" fill="#F1F3F5"/>
<path d="M484.173 136.191C482.843 136.191 481.527 136.673 480.594 137.62C477.152 141.114 472.367 143.28 467.076 143.28C461.443 143.28 456.384 140.826 452.909 136.928C452.484 136.452 451.867 136.191 451.228 136.191C444.665 136.191 439.344 130.87 439.344 124.306C439.344 117.742 444.665 112.422 451.228 112.422C451.867 112.422 452.484 112.161 452.909 111.684C456.384 107.786 461.443 105.332 467.076 105.332C472.367 105.332 477.153 107.498 480.594 110.992C481.527 111.94 482.843 112.422 484.173 112.422C490.737 112.422 496.058 117.742 496.058 124.306C496.058 130.87 490.737 136.191 484.173 136.191Z" fill="white"/>
<path d="M179.787 91.4174C178.457 91.4174 177.141 91.8993 176.208 92.8469C172.767 96.3406 167.981 98.5066 162.69 98.5066C157.057 98.5066 151.998 96.0524 148.523 92.155C148.098 91.6782 147.481 91.4174 146.843 91.4174C140.279 91.4174 134.958 86.0964 134.958 79.5327C134.958 72.969 140.279 67.6481 146.843 67.6481C147.481 67.6481 148.098 67.3873 148.523 66.9106C151.998 63.013 157.057 60.5586 162.69 60.5586C167.981 60.5586 172.767 62.7247 176.208 66.2186C177.142 67.1662 178.457 67.6481 179.787 67.6481C186.351 67.6481 191.672 72.969 191.672 79.5327C191.672 86.0964 186.351 91.4174 179.787 91.4174Z" fill="white"/>
<path fill-rule="evenodd" clip-rule="evenodd" d="M467.076 141.78C471.949 141.78 476.354 139.787 479.525 136.568C480.776 135.298 482.495 134.691 484.173 134.691C489.908 134.691 494.558 130.041 494.558 124.306C494.558 118.571 489.908 113.922 484.173 113.922C482.495 113.922 480.776 113.315 479.525 112.045C476.354 108.825 471.949 106.832 467.076 106.832C461.888 106.832 457.231 109.09 454.028 112.682C453.302 113.496 452.27 113.922 451.228 113.922C445.493 113.922 440.844 118.571 440.844 124.306C440.844 130.041 445.493 134.691 451.228 134.691C452.27 134.691 453.303 135.116 454.029 135.93C457.231 139.522 461.889 141.78 467.076 141.78ZM480.594 137.62C481.527 136.673 482.843 136.191 484.173 136.191C490.737 136.191 496.058 130.87 496.058 124.306C496.058 117.742 490.737 112.422 484.173 112.422C482.843 112.422 481.527 111.94 480.594 110.992C477.153 107.498 472.367 105.332 467.076 105.332C461.443 105.332 456.384 107.786 452.909 111.684C452.484 112.161 451.867 112.422 451.228 112.422C444.665 112.422 439.344 117.742 439.344 124.306C439.344 130.87 444.665 136.191 451.228 136.191C451.867 136.191 452.484 136.452 452.909 136.928C456.384 140.826 461.443 143.28 467.076 143.28C472.367 143.28 477.152 141.114 480.594 137.62Z" fill="#CED4DA"/>
<path fill-rule="evenodd" clip-rule="evenodd" d="M162.694 97.0066C167.567 97.0066 171.972 95.0135 175.143 91.7943C176.394 90.5242 178.113 89.9174 179.791 89.9174C185.526 89.9174 190.176 85.268 190.176 79.5327C190.176 73.7974 185.526 69.1481 179.791 69.1481C178.113 69.1481 176.395 68.5412 175.144 67.2712C171.973 64.0518 167.567 62.0586 162.694 62.0586C157.507 62.0586 152.849 64.3169 149.646 67.9088C148.92 68.723 147.888 69.1481 146.847 69.1481C141.111 69.1481 136.462 73.7974 136.462 79.5327C136.462 85.268 141.111 89.9174 146.847 89.9174C147.888 89.9174 148.921 90.3425 149.647 91.1567C152.849 94.7484 157.507 97.0066 162.694 97.0066ZM176.212 92.8469C177.145 91.8993 178.461 91.4174 179.791 91.4174C186.355 91.4174 191.676 86.0964 191.676 79.5327C191.676 72.969 186.355 67.6481 179.791 67.6481C178.461 67.6481 177.146 67.1662 176.212 66.2186C172.771 62.7247 167.985 60.5586 162.694 60.5586C157.061 60.5586 152.002 63.013 148.527 66.9106C148.102 67.3873 147.485 67.6481 146.847 67.6481C140.283 67.6481 134.962 72.969 134.962 79.5327C134.962 86.0964 140.283 91.4174 146.847 91.4174C147.485 91.4174 148.102 91.6782 148.527 92.155C152.002 96.0524 157.061 98.5066 162.694 98.5066C167.985 98.5066 172.771 96.3406 176.212 92.8469Z" fill="#CED4DA"/>
<g style="mix-blend-mode:multiply">
<path d="M455.489 135.108C457.807 138.228 461.924 140.521 465.804 141.779C463.687 141.456 459.095 141.22 454.123 136.096C453.832 135.667 452.892 134.711 451.462 134.743C450.058 134.774 448.283 134.338 447.543 134.035C449.354 134.194 452.07 134.168 453.845 134.199C454.505 134.211 455.095 134.578 455.489 135.108Z" fill="#F1F3F5"/>
</g>
<g style="mix-blend-mode:multiply">
<path d="M151.107 90.335C153.425 93.455 157.542 95.7473 161.422 97.0053C159.305 96.6825 154.713 96.4464 149.741 91.3224C149.45 90.8939 148.51 89.9375 147.08 89.9695C145.676 90.0008 143.901 89.5641 143.161 89.2617C144.972 89.421 147.688 89.3947 149.463 89.4256C150.123 89.4372 150.713 89.8046 151.107 90.335Z" fill="#F1F3F5"/>
</g>
<g style="mix-blend-mode:multiply">
<path d="M475.382 113.089C476.902 114.962 479.937 115.78 481.265 115.955C489.332 115.955 493.298 121.082 494.7 125.228C494.851 122.46 493.611 117.321 488.486 114.877C487.906 114.601 487.301 114.392 486.617 114.191C485.971 114.018 485.308 113.923 484.561 113.835C483.686 113.89 481.55 113.72 480.003 112.594C478.452 110.852 474.123 107.272 469.216 106.89C467.806 106.748 464.711 106.579 463.605 107.035C471.778 107.393 473.724 111.044 475.382 113.089Z" fill="#F8F9FA"/>
</g>
<g style="mix-blend-mode:multiply">
<path d="M171 68.3151C172.52 70.1884 175.555 71.0069 176.883 71.182C184.95 71.182 188.916 76.3082 190.318 80.4543C190.469 77.6862 189.23 72.5479 184.104 70.1038C183.524 69.8272 182.919 69.6188 182.235 69.4176C181.589 69.2444 180.926 69.1496 180.18 69.0613C179.304 69.1169 177.168 68.9467 175.621 67.8203C174.07 66.0781 169.741 62.4983 164.834 62.1165C163.425 61.9748 160.329 61.8056 159.224 62.2619C167.396 62.6199 169.342 66.2707 171 68.3151Z" fill="#F8F9FA"/>
</g>
<path d="M127.251 147.504C126.389 147.504 125.536 147.816 124.931 148.431C122.7 150.695 119.598 152.099 116.168 152.099C112.517 152.099 109.237 150.508 106.985 147.982C106.709 147.673 106.309 147.504 105.895 147.504C101.641 147.504 98.1914 144.055 98.1914 139.8C98.1914 135.545 101.641 132.096 105.895 132.096C106.309 132.096 106.709 131.927 106.984 131.618C109.237 129.091 112.517 127.5 116.168 127.5C119.598 127.5 122.7 128.904 124.931 131.169C125.536 131.783 126.389 132.096 127.251 132.096C131.506 132.096 134.955 135.545 134.955 139.8C134.955 144.055 131.506 147.504 127.251 147.504Z" fill="white"/>
<path fill-rule="evenodd" clip-rule="evenodd" d="M116.168 150.599C119.18 150.599 121.902 149.368 123.862 147.378C124.785 146.441 126.041 146.004 127.251 146.004C130.678 146.004 133.455 143.226 133.455 139.8C133.455 136.373 130.678 133.596 127.251 133.596C126.041 133.596 124.785 133.158 123.862 132.221C121.902 130.231 119.18 129 116.168 129C112.962 129 110.084 130.395 108.104 132.616C107.528 133.262 106.712 133.596 105.895 133.596C102.469 133.596 99.6914 136.373 99.6914 139.8C99.6914 143.226 102.469 146.004 105.895 146.004C106.712 146.004 107.528 146.337 108.104 146.984C110.084 149.204 112.962 150.599 116.168 150.599ZM124.931 148.431C125.536 147.816 126.389 147.504 127.251 147.504C131.506 147.504 134.955 144.055 134.955 139.8C134.955 135.545 131.506 132.096 127.251 132.096C126.389 132.096 125.536 131.783 124.931 131.169C122.7 128.904 119.598 127.5 116.168 127.5C112.517 127.5 109.237 129.091 106.984 131.618C106.709 131.927 106.309 132.096 105.895 132.096C101.641 132.096 98.1914 135.545 98.1914 139.8C98.1914 144.055 101.641 147.504 105.895 147.504C106.309 147.504 106.709 147.673 106.985 147.982C109.237 150.508 112.517 152.099 116.168 152.099C119.598 152.099 122.7 150.695 124.931 148.431Z" fill="#CED4DA"/>
<g style="mix-blend-mode:multiply">
<path d="M108.905 146.38C110.368 148.35 112.967 149.797 115.417 150.591C114.08 150.387 111.182 150.238 108.043 147.003C107.859 146.733 107.008 146.009 106.106 146.029C105.219 146.049 104.099 145.773 103.632 145.582C104.783 145.683 106.686 145.747 107.868 145.796C108.285 145.814 108.657 146.045 108.905 146.38Z" fill="#F1F3F5"/>
</g>
<g style="mix-blend-mode:multiply">
<path d="M121.455 132.981C122.415 134.164 124.331 134.68 125.169 134.791C130.261 134.791 132.533 137.951 133.418 140.568C133.622 138.579 132.962 135.653 129.727 134.11C129.361 133.936 128.979 133.804 128.547 133.677C128.139 133.568 127.67 133.588 127.199 133.532C126.646 133.568 125.348 133.38 124.372 132.669C123.393 131.569 120.66 129.309 117.563 129.068C116.673 128.979 114.719 128.872 114.021 129.16C119.18 129.386 120.408 131.691 121.455 132.981Z" fill="#F8F9FA"/>
</g>
<defs>
<linearGradient id="paint0_linear" x1="359.756" y1="148.008" x2="497.175" y2="148.008" gradientUnits="userSpaceOnUse">
<stop offset="0.151042" stop-color="#A2A4A7" stop-opacity="0"/>
<stop offset="0.506289" stop-color="#A2A4A7"/>
<stop offset="0.890625" stop-color="#A2A4A7" stop-opacity="0"/>
</linearGradient>
</defs>
</svg>
